<svg width="100" height="100" viewBox="0 0 100 100" fill="none" xmlns="http://www.w3.org/2000/svg">
<path d="M58.2863 15.1322V11.4978H41.326V15.1322H42.5374V32.0924H44.9603V15.1322H54.6519V32.0924H57.0748V15.1322H58.2863Z" fill="black"/>
<path fill-rule="evenodd" clip-rule="evenodd" d="M67.9779 32.0924H31.6344V35.7269H28V91.4537H31.6344V95.0879H67.9779V91.4537H71.6122V35.7269H67.9779V32.0924ZM54.6519 40.5727H44.9603V42.9956H54.6519V40.5727Z" fill="black"/>
<path d="M42.1145 95.088H38.4802V98.7224H42.1145V95.088Z" fill="black"/>
<path d="M57.4977 95.088H61.1321V98.7224H57.4977V95.088Z" fill="black"/>
<path d="M53 0H62V8H53V0Z" fill="black"/>
<path d="M48.5947 7.86328H57.0748V17.5549H48.5947V7.86328Z" fill="#FFD600"/>
</svg>
