<svg width="100" height="100" viewBox="0 0 100 100" fill="none" xmlns="http://www.w3.org/2000/svg">
<path d="M73.5714 41.8367H79.1837V47.449H73.5714V41.8367Z" fill="#C06041"/>
<path d="M80.3061 28.4898H62.347V24H80.3061V28.4898Z" fill="black"/>
<path d="M34.2857 36.3469H52.2449V31.8571H44.3877V29.6122H34.2857V36.3469Z" fill="black"/>
<path fill-rule="evenodd" clip-rule="evenodd" d="M10.3401 46.3265H29.0476V50.0681H32.7891V53.8095H36.5306V72.517H32.7891V76.2585H29.0476V80H10.3401V76.2585H6.59864V72.517H2.85715V53.8095H6.59864V50.0681H10.3401V46.3265ZM13.458 51.9388H25.9297V54.4332H28.424V56.9274H30.9184V69.3991H28.424V71.8935H25.9297V74.3877H13.458V71.8935H10.9637V69.3991H8.46939L8.46939 56.9274H10.9637V54.4332H13.458V51.9388Z" fill="black"/>
<path fill-rule="evenodd" clip-rule="evenodd" d="M70.9524 46.3265H89.6599V50.0681H93.4014V53.8095H97.1429V72.517H93.4014V76.2585H89.6599V80H70.9524V76.2585H67.2109V72.517H63.4694V53.8095H67.2109V50.0681H70.9524V46.3265ZM74.0703 51.9388H86.5419V54.4332H89.0363V56.9274H91.5306V69.3991H89.0363V71.8935H86.5419V74.3877H74.0703V71.8935H71.576V69.3991H69.0816V56.9274H71.576V54.4332H74.0703V51.9388Z" fill="black"/>
<path d="M42.7041 69.3367V73.8265H50.5612V69.3367H42.7041Z" fill="black"/>
<path d="M45.5102 46.3265H74.6939V41.8367H45.5102V46.3265Z" fill="#C06041"/>
<path fill-rule="evenodd" clip-rule="evenodd" d="M78.0612 28.3674H73.5714V43.1848L45.5102 59.3859V36.2245H38.7755V41.3969L19.254 60.9183H17.449V65.4081L20.676 65.4082L20.8949 65.627L21.1137 65.4082H40.8235L44.4079 71.6166L48.2962 69.3717L45.5206 64.5643L75.1651 47.449H76.9388V53.0613H78.0612V65.4081L82.551 65.4081L82.551 50.8163H81.4286V44.0817H78.0612V28.3674ZM25.6035 60.9184L38.7755 47.7464V60.9184H25.6035Z" fill="#C06041"/>
</svg>
