<svg width="100" height="100" viewBox="0 0 100 100" fill="none" xmlns="http://www.w3.org/2000/svg">
<g clip-path="url(#clip0_95_962)">
<path fill-rule="evenodd" clip-rule="evenodd" d="M82.2452 65.7239L78 65.5031L81.4079 0H72.6135L77.4109 92.2113L69.4217 92.6269L64.6027 0H50V81.9999H42V0H31L31 99.9999H18L18 0H0V100H100V0H85.6645L82.2452 65.7239Z" fill="#5DA6DC"/>
<path fill-rule="evenodd" clip-rule="evenodd" d="M82.2452 65.7239L78 65.5031L78.3383 59H75.6831L77.4109 92.2113L69.4217 92.6269L67.6722 59H50V81.9999H42V59H31V99.9999H18V59H7V62H0V100H7H93H100V62H93V59H82.595L82.2452 65.7239Z" fill="black"/>
<path d="M83.4623 -8.80674L81.8704 -8.88956L82.0439 -12.2257L83.6359 -12.1429L83.5934 -11.3258L84.6546 -11.2706L84.5686 -9.61658L83.5073 -9.6718L83.4623 -8.80674Z" fill="black"/>
<path d="M66.9959 -11.7402L64 -11.5844L64.0542 -10.5422L67.0502 -10.6981L66.9959 -11.7402Z" fill="black"/>
<path d="M72.0976 -9.9159L70.2958 -9.82215L70.4042 -7.73794L69.2101 -7.67581L69.2643 -6.6337L72.2603 -6.78955L72.0976 -9.9159Z" fill="black"/>
<path d="M42 -4H45V-5H47V-9H42V-4Z" fill="black"/>
<path d="M31 0H26V1H31V0Z" fill="black"/>
<path d="M20 2H18V5H23V4H20V2Z" fill="black"/>
<path d="M31 13H28V15H31V13Z" fill="black"/>
<path d="M27 20H31V23H27V20Z" fill="black"/>
<path d="M18 34H21V35H22V38H18V34Z" fill="black"/>
<path d="M22 43V45H28V43H22Z" fill="black"/>
<path d="M18 48H25V50H18V48Z" fill="black"/>
<path d="M31 63H26V66H31V63Z" fill="black"/>
<path d="M19 69H24V72H18V70H19V69Z" fill="black"/>
<path d="M31 86H26V87H23V91H31V86Z" fill="black"/>
<path d="M22 26H25V28H22V26Z" fill="black"/>
<path d="M25 15H19V16H18V18H26V16H25V15Z" fill="black"/>
<path d="M46 13H49V12H50V10H46V13Z" fill="black"/>
<path d="M45 19H42V16H45V19Z" fill="black"/>
<path d="M46 32V34H50V32H46Z" fill="black"/>
<path d="M48 48H50V44H48V48Z" fill="black"/>
<path d="M42 62H44V59H42V62Z" fill="black"/>
<path d="M44 69H42V67H44V69Z" fill="black"/>
<path d="M46 54V56H48V54H46Z" fill="black"/>
<path d="M49 67H46V66H45V64H50V66H49V67Z" fill="black"/>
<path d="M44 39V37H48V39H44Z" fill="black"/>
<path d="M50 80H49V78H47V77H50V80Z" fill="black"/>
<path d="M45 82H42V81H45V82Z" fill="black"/>
<path d="M71.6586 77.8815L68.6627 78.0374L68.8718 82.0565L71.8677 81.9007L71.8165 80.9163L73.8138 80.8124L73.7101 78.8198L71.7128 78.9237L71.6586 77.8815Z" fill="black"/>
<path d="M74.7461 60.2379L71.072 60.4291L71.2201 63.2754L75.8928 63.0322L75.7844 60.9479L74.7857 60.9999L74.7461 60.2379Z" fill="black"/>
<path d="M67.4525 54.7775L70.4485 54.6217L70.5743 57.0394L67.5783 57.1953L67.4525 54.7775Z" fill="black"/>
<path d="M74.5916 38.0214L69.5292 38.2848L69.6376 40.369L74.7001 40.1057L74.5916 38.0214Z" fill="black"/>
<path d="M68.3286 33.1226L72.3232 32.9148L72.3999 34.3878L68.4053 34.5956L68.3286 33.1226Z" fill="black"/>
<path d="M71.9664 26.056L70.0007 26.1582L70.0865 27.8064L74.0494 27.6002L73.8868 24.4739L71.8895 24.5778L71.9664 26.056Z" fill="black"/>
<path d="M67.0816 9.15393L65.0843 9.25784L65.247 12.3842L67.2443 12.2803L67.0816 9.15393Z" fill="black"/>
<path d="M64.7048 1.96314L67.7633 1.80403L67.8717 3.88825L64.8133 4.04737L64.7048 1.96314Z" fill="black"/>
<path d="M72.7179 14.6054L70.7206 14.7094L70.8291 16.7936L72.8264 16.6897L72.7179 14.6054Z" fill="black"/>
<path d="M68.8079 3.83944L72.5022 3.64724L72.6087 5.69584L68.9144 5.88803L68.8079 3.83944Z" fill="black"/>
<path d="M84.8319 5.7767L82.8796 5.67513L83.0025 3.31252L85.4855 3.44164L85.3955 5.1717L84.8648 5.14409L84.8319 5.7767Z" fill="black"/>
<path d="M80.8659 10.4178L82.4578 10.5006L82.5622 8.49373L80.9703 8.41091L80.8659 10.4178Z" fill="black"/>
<path d="M84.4054 24.2023L81.7154 24.0624L81.8054 22.3323L84.4954 22.4723L84.4054 24.2023Z" fill="black"/>
<path d="M80.9965 28.362L83.1191 28.4724L83.1827 27.2497L81.0601 27.1393L80.9965 28.362Z" fill="black"/>
<path d="M82.8229 34.1656L81.7784 34.1112L81.8495 32.7431L83.9553 32.8527L83.8203 35.4478L82.759 35.3926L82.8229 34.1656Z" fill="black"/>
<path d="M79.9614 48.2576L78.9001 48.2024L79.0351 45.6073L80.0964 45.6625L79.9614 48.2576Z" fill="black"/>
<path d="M78.5851 54.2575L80.2102 54.3421L80.3002 52.612L78.6751 52.5275L78.5851 54.2575Z" fill="black"/>
<path d="M83.0453 43.6495L81.984 43.5943L82.0741 41.8642L83.1353 41.9194L83.0453 43.6495Z" fill="black"/>
<path d="M80.7976 52.638L82.7607 52.7401L82.8491 51.0396L80.8861 50.9375L80.7976 52.638Z" fill="black"/>
<path d="M82.3352 63.9938L81.3777 63.944L81.4678 62.2139L80.8333 62.1809L80.8783 61.3159L82.4702 61.3988L82.3352 63.9938Z" fill="black"/>
<path d="M79.5919 65.5857L78 65.5029L78.045 64.6379L79.6369 64.7207L79.5919 65.5857Z" fill="black"/>
</g>
<defs>
<clipPath id="clip0_95_962">
<rect width="100" height="100" fill="white"/>
</clipPath>
</defs>
</svg>
