<svg xmlns="http://www.w3.org/2000/svg" viewBox="0 0 100 100">
    <path d="M0 62h100v38H0V62Z"/>
    <path d="M7 59h86v41H7V59Z"/>
    <path fill="currentColor" d="M78 66h4l5-87h-4l-5 87ZM42 82h8V-18h-8V82ZM31 0H18v100h13V0ZM72-12h-8l5 105 8-1-5-104Z"/>
    <path d="M83-9h-1v-3h2v1h1v1h-1l-1 1ZM67-12h-3v1h3v-1ZM72-10h-2v2h-1v1h3v-3ZM42-4h3v-1h2v-4h-5v5ZM31 0h-5v1h5V0ZM20 2h-2v3h5V4h-3V2ZM31 13h-3v2h3v-2ZM27 20h4v3h-4v-3ZM18 34h3v1h1v3h-4v-4ZM22 43v2h6v-2h-6ZM18 48h7v2h-7v-2ZM31 63h-5v3h5v-3ZM19 69h5v3h-6v-2h1v-1ZM31 86h-5v1h-3v4h8v-5ZM22 26h3v2h-3v-2ZM25 15h-6v1h-1v2h8v-2h-1v-1ZM46 13h3v-1h1v-2h-4v3ZM45 19h-3v-3h3v3ZM46 32v2h4v-2h-4ZM48 48h2v-4h-2v4ZM42 62h2v-3h-2v3ZM44 69h-2v-2h2v2ZM46 54v2h2v-2h-2ZM49 67h-3v-1h-1v-2h5v2h-1v1ZM44 39v-2h4v2h-4ZM50 80h-1v-2h-2v-1h3v3ZM45 82h-3v-1h3v1ZM72 78h-3v4h3v-1h2v-2h-2v-1ZM75 60h-4v3h5v-2h-1v-1ZM67 55h3l1 2h-3l-1-2ZM75 38h-5v2h5v-2ZM68 33h4v1l-4 1v-2ZM72 26h-2v2h4v-4l-2 1v1ZM67 9h-2v3h2V9ZM65 2h3v2h-3V2ZM73 15h-2v2h2v-2ZM69 4h4v2h-4V4ZM85 6h-2V3h2v3ZM81 10l1 1 1-3h-2v2ZM84 24h-2v-2h2v2ZM81 28h2v-1h-2v1ZM83 34h-1v-1h2v2h-1v-1ZM80 48h-1v-2h1v2ZM79 54h1v-1h-1v1ZM83 44h-1v-2h1v2ZM81 53h2v-2h-2v2ZM82 64h-1v-3h1v3ZM80 66h-2v-1h2v1Z"/>

</svg>
