<svg width="100" height="100" viewBox="0 0 100 100" fill="none" xmlns="http://www.w3.org/2000/svg">
<path d="M82 68H83V84H82V85H70V84H69V82H31V84H30V85H18V84H17V68H18V17H82V68ZM21 70V78H31V70H21ZM69 70V78H79V70H69ZM53 63H56V56.9287H53V63ZM56 56.9287H59V50.8574H56V56.9287ZM59 50.8574H62V44.7861H59V50.8574ZM62 44.7861H65V38.7139H62V44.7861ZM65 38.7139H68V32.6426H65V38.7139ZM68 32.6426H71V29H68V32.6426ZM35 26H38V23H37V25H36V20H35V26ZM40 26H41V20H40V26ZM42 26H45V25H43V21H45V20H42V26ZM47 26H51V25H48V23H51V22H48V21H51V20H47V26ZM52 26H55V25H53V21H55V20H52V26ZM58 23H57V26H58V24H60V26H61V20H58V23ZM62 26H65V25H63V20H62V26ZM45 25H46V21H45V25ZM55 25H56V21H55V25ZM38 23H39V20H38V23ZM60 23H59V21H60V23Z" fill="black"/>
<path d="M79 17H82V28H85V29H90V30H91V40H90V41H83V31H82V80H79V82H21V80H18V31H17V41H10V40H9V30H10V29H15V28H18V17H21V15H79V17ZM21 78H31V70H21V78ZM69 78H79V70H69V78ZM35 76V77H65V76H35ZM35 74V75H65V74H35ZM35 72V73H65V72H35ZM35 70V71H65V70H35ZM21 63H79V29H21V63ZM21 28H79V18H21V28Z" fill="#326331"/>
</svg>
