<svg width="100" height="100" viewBox="0 0 100 100" fill="none" xmlns="http://www.w3.org/2000/svg">
<path d="M28.7646 65.4902H31.0781V67.8037H33.3926V79.373H31.0781V81.6865H28.7646V84H17.1963V81.6865H14.8828V79.373H12.5684V67.8037H14.8828V65.4902H17.1963V63.1768H28.7646V65.4902ZM73.8828 65.4902H76.1963V67.8037H78.5098V79.373H76.1963V81.6865H73.8828V84H62.3135V81.6865H60V79.373H57.6865V67.8037H60V65.4902H62.3135V63.1768H73.8828V65.4902ZM50.7451 28.4707H62.3135V38.8828H69.2549V45.8232H80.8232V48.1377H93.5488V53.9219H98.1768V70.1172H93.5488V73.5879H80.8232V64.333H77.3525V60.8623H58.8428V64.333H55.3721V73.5879H35.7061V64.333H32.2354V60.8623H13.7256V64.333H10.2549V73.5879H1V48.1377H4.4707V33.0977H11.4121V28.4707H21.8232V25H36V19H41V25H50.7451V28.4707Z" fill="black"/>
<path d="M33 48H24V41H33V48ZM25 47H32V46H25V47ZM25 45H29V44H25V45ZM25 43H31V42H25V43ZM41 25H38V21H41V25Z" fill="#FFD600"/>
</svg>
