<svg width="100" height="100" viewBox="0 0 100 100" fill="none" xmlns="http://www.w3.org/2000/svg">
<path d="M50.7451 25H21.8235V28.4706H11.4118V33.098H4.47059V48.1373H1V73.5882H10.2549V64.3333H13.7255V60.8628H32.2353V64.3333H35.7059V73.5882H55.3726V64.3333H58.8431V60.8628H77.3529V64.3333H80.8235V73.5882H93.549V70.1176H98.1765V53.9216H93.549V48.1373H80.8235V45.8235H69.2549V38.8824H62.3137V28.4706H50.7451V25Z" fill="#FFD600"/>
<path d="M17.1961 63.1765H28.7647V65.4902H31.0784V67.804H33.3921V79.3726H31.0784V81.6863H28.7647V84H17.1961V81.6863H14.8823V79.3726H12.5686L12.5686 67.804H14.8823V65.4902H17.1961V63.1765Z" fill="black"/>
<path d="M62.3137 63.1765H73.8823V65.4902H76.1961V67.804H78.5098V79.3726H76.1961V81.6863H73.8823V84H62.3137V81.6863H60V79.3726H57.6862V67.804H60V65.4902H62.3137V63.1765Z" fill="black"/>
</svg>
