<svg width="100" height="100" viewBox="0 0 100 100" fill="none" xmlns="http://www.w3.org/2000/svg">
<path fill-rule="evenodd" clip-rule="evenodd" d="M28 5H72V8.00001L77 8.00001V11L85 11V15H89V23H92V28H95V72H92V77H89V85H85V89H77V92H72V95H28V92H23V89H15V85H11V77H8L8 72H5L5 28H8L8 23H11V15H15V11L23 11V8L28 8V5ZM31.9111 13H68.0889V15.4667H72.2V17.9333H78.7778V21.2222H82.0667V27.8H84.5333V31.9111H87V68.0889H84.5333V72.2H82.0667V78.7777H78.7778V82.0666H72.2V84.5334H68.0889V87H31.9111V84.5333H27.8V82.0666H21.2222V78.7777H17.9333V72.2H15.4667V68.0889H13V31.9111H15.4667V27.8H17.9333V21.2222H21.2222V17.9333H27.8V15.4667H31.9111V13Z" fill="black"/>
<path d="M61.8174 20L63.6604 20.7768L50.843 51.1859L49 50.4091L61.8174 20Z" fill="black"/>
<path d="M74.2462 59.0143L72.5517 62.6376L49 51.6233L50.6945 47.9999L74.2462 59.0143Z" fill="black"/>
<path d="M53 47V53H47V47H53Z" fill="black"/>
<path d="M48 15H52V23H48V15Z" fill="#C06041"/>
<path d="M18.196 39.2178L18.5385 38.2782L49.5429 49.5796L49.2005 50.5192L18.196 39.2178Z" fill="#C06041"/>
<path d="M66.634 19.1891L68.366 20.1891L65.866 24.5192L64.134 23.5192L66.634 19.1891Z" fill="#C06041"/>
<path d="M85 48V52H77V48H85Z" fill="#C06041"/>
<path d="M48 77H52V85H48V77Z" fill="#C06041"/>
<path d="M34.134 75.4807L35.866 76.4807L33.366 80.8108L31.634 79.8108L34.134 75.4807Z" fill="#C06041"/>
<path d="M79.8109 31.6339L80.8109 33.366L76.4808 35.866L75.4808 34.1339L79.8109 31.6339Z" fill="#C06041"/>
<path d="M23.5193 64.1339L24.5193 65.866L20.1891 68.366L19.1891 66.6339L23.5193 64.1339Z" fill="#C06041"/>
<path d="M80.8109 66.6339L79.8109 68.366L75.4808 65.866L76.4808 64.1339L80.8109 66.6339Z" fill="#C06041"/>
<path d="M24.5193 34.1339L23.5193 35.866L19.1891 33.366L20.1891 31.6339L24.5193 34.1339Z" fill="#C06041"/>
<path d="M68.3661 79.8108L66.634 80.8108L64.134 76.4807L65.8661 75.4807L68.3661 79.8108Z" fill="#C06041"/>
<path d="M35.8661 23.5192L34.134 24.5192L31.634 20.189L33.3661 19.189L35.8661 23.5192Z" fill="#C06041"/>
<path d="M23 48V52H15L15 48H23Z" fill="#C06041"/>
</svg>
