<svg width="100" height="100" viewBox="0 0 100 100" fill="none" xmlns="http://www.w3.org/2000/svg">
<g clip-path="url(#clip0_157_993)">
<path fill-rule="evenodd" clip-rule="evenodd" d="M100 0H0V100H100V0ZM69.9661 22H73.1186V24.1017H75.2203V26.2034H78.3729V24.1017H88.8813V27.2542H97.2881V33.5593H88.8813V48.2712H78.3729V53.5254L74.1695 53.5254V59.8305H69.9661V65.0847H71.0169V81.8983H64.7119V66.1356H60.5085V84H54.2034V66.1356H33.1864V70.339H21.6271V81.8983H15.322V66.1356H13.2203V81.8983H6.91524V65.0847H7.96609V55.6271H5.8644V72.4407H2.71185V48.2712H4.81355V31.4576H7.96609V28.3051H47.8983V26.2034H69.9661V22Z" fill="#5DA6DC"/>
<path d="M69.9661 22H75.2203L75.2203 26.2034H78.3729V30.4068H80.4746V34.6102H81.5254V39.8644H80.4746V41.9661H77.322V32.5085H75.2203L75.2203 30.4068H72.0678V28.3051H69.9661V22Z" fill="black"/>
<path d="M97.2881 27.2542H85.7288V40.9153H88.8813V33.5593H97.2881V27.2542Z" fill="black"/>
<path d="M19.5254 34.6102H14.2712V44.0678H19.5254V34.6102Z" fill="black"/>
<path d="M45.7966 53.5254H41.5932V58.7797H25.8305V47.2203H30.0339V36.7119H34.2373V28.3051L44.7458 28.3051V32.5085H41.5932V36.7119H45.7966V53.5254Z" fill="black"/>
<path d="M60.5085 34.6102H54.2034V48.2712H60.5085L60.5085 51.4237H66.8136V46.1695H69.9661V53.5254H75.2203V34.6102H69.9661V32.5085H66.8136V37.7627H60.5085L60.5085 34.6102Z" fill="black"/>
<path d="M80.4746 44.0678H87.8305V48.2712H80.4746V44.0678Z" fill="black"/>
<path d="M56.3051 71.3898H54.2034V65.0847H56.3051V71.3898Z" fill="black"/>
<path d="M57.3559 75.5932H60.5085V72.4407H57.3559V75.5932Z" fill="black"/>
<path d="M71.0169 75.5932H67.8644V71.3898H71.0169V75.5932Z" fill="black"/>
</g>
<defs>
<clipPath id="clip0_157_993">
<rect width="100" height="100" fill="white"/>
</clipPath>
</defs>
</svg>
