<svg xmlns="http://www.w3.org/2000/svg" viewBox="0 0 100 100">
  <path fill="currentColor" d="M73 22h-3v4H48v2H8v3H5v17H3v24h3V56h2v9H7v17h6V66h2v16h7V70h11v-4h21v18h7V66h4v16h6V65h-1v-5h4v-6h4v-6h11V34h8v-7h-8v-3H78v2h-3v-2h-2v-2Z"/>
  <path d="M70 22h5v4h3v4h2v5h2v5h-2v2h-3v-9h-2v-3h-3v-2h-2v-6ZM97 27H86v14h3v-7h8v-7ZM20 35h-6v9h6v-9ZM46 54h-4v5H26V47h4V37h4v-9h11v5h-3v4h4v17Z"/>
  <path d="M61 35h-7v13h7v3h6v-5h3v8h5V35h-5v-2h-3v5h-6v-3ZM80 44h8v4h-8v-4ZM56 71h-2v-6h2v6ZM57 76h4v-4h-4v4ZM71 76h-3v-5h3v5Z"/>
</svg>
