<svg width="100" height="100" viewBox="0 0 100 100" fill="none" xmlns="http://www.w3.org/2000/svg">
<path fill-rule="evenodd" clip-rule="evenodd" d="M40.5195 20H39.3904V21.6936H39.6727V22.2581H40.2372V27.9034H37.1323V28.7502H29.5112L29.5112 29.5969H28.9467V32.4196L29.229 32.4196V34.1972H26.3487V32.9036H21.6055V24.2795H22.4679V23.4172H22.8991V20.8301H21.1743V22.1237H20.312V23.4172H18.5872V22.1237H17.7248V20.8301H16V23.4172H16.4312V24.2795H17.2936V41.0962L18.156 41.0963L18.156 52.3073H19.4496V47.9954H20.312V41.0963H21.1743V46.7018H20.7432V53.1697H22.0367V47.9954H23.3303V41.0963H32.8166V46.7017H33.679V51.0139H34.9726V41.0963H36.2662V46.7017H37.5598V51.8762H38.8534V45.4083H38.4222V39.8026H38.8534V35.4907H37.991V34.1972H32.8984V33.2664L43.0599 33.2664V22.2581H43.6244V21.6936H43.9067V20H42.7776V20.8469H42.2131V21.6936H41.084V20.8469H40.5195V20ZM31.4871 34.1972V33.2664H30.6403V34.1972H31.4871Z" fill="black"/>
<path d="M40.5195 33.2665H39.1082V37.7827H39.955V41.1698H40.8018V36.9358H40.5195V33.2665Z" fill="black"/>
<path d="M41.084 37.7827H41.6486V40.6053H42.4953L42.4953 33.2665H41.084V37.7827Z" fill="black"/>
<path d="M67.56 10H71.7733V13.16H73.88V16.32H78.0933V13.16H80.2V10H84.4133V16.32H83.36V18.4267H81.2533V59.5067H79.1467V86.8933H75.9867V76.3599H73.88V59.5067H71.7733V73.2H72.8267V89H69.6667V76.3599H66.5067V59.5067L43.3333 59.5067V73.2H41.2267V83.7333H38.0667V59.5067H34.9067V73.2H31.7467V85.84H28.5867V70.04H29.64V56.3467L28.5867 56.3467V45.8133H30.6933L30.6933 42.6533H59.1333V39.4933H70.72V18.4267H68.6133V16.32H67.56V10Z" fill="#8D5D31"/>
<path d="M72 22H74V24H72V22Z" fill="black"/>
<path d="M78 22H80V24H78V22Z" fill="black"/>
<path d="M74 26H78V28H77V29H75V28H74V26Z" fill="black"/>
</svg>
