<svg width="100" height="100" viewBox="0 0 100 100" fill="none" xmlns="http://www.w3.org/2000/svg">
<g clip-path="url(#clip0_2013_1937)">
<path d="M16 44H17V83H16V85H15V84H14V85H12V82H11V83H10V85H9V44H10V43H16V44Z" fill="#8D5D31"/>
<path d="M60.334 37.7617H61.0957V67H61.0479V69H60.0479V68H59.0479V69H57.0479V66H56.0479V67H55.0479V69H55V37.7617H55.7617V37H60.334V37.7617Z" fill="#8D5D31"/>
<path d="M90.2949 32.6133H90.9082V56.5459H90.2949V57.7725H89.6816V57.1592H89.0674V57.7725H87.8408V55.9316H87.2266V56.5459H86.6133V57.7725H86V32.6133H86.6133V32H90.2949V32.6133Z" fill="#8D5D31"/>
<path d="M-31 69H-23V70H-16V71H-12V72H-17V71H-24V70H-32V69H-39V68H-31V69Z" fill="black"/>
<path d="M-9 71H-12V70H-9V71Z" fill="black"/>
<path d="M-7 70H-9V69H-7V70Z" fill="black"/>
<path d="M-4 69H-7V68H-4V69Z" fill="black"/>
<path d="M-3 68H-4V67H-3V68Z" fill="black"/>
<path d="M0 67H-3V66H0V67Z" fill="black"/>
<path d="M2 66H0V65H2V66Z" fill="black"/>
<path d="M4 65H2V64H4V65Z" fill="black"/>
<path d="M17 62H25V63H32V64H36V65H31V64H24V63H16V62H8V63H5V62H6V61H17V62Z" fill="black"/>
<path d="M5 64H4V63H5V64Z" fill="black"/>
<path d="M39 64H36V63H39V64Z" fill="black"/>
<path d="M41 63H39V62H41V63Z" fill="black"/>
<path d="M44 62H41V61H44V62Z" fill="black"/>
<path d="M45 61H44V60H45V61Z" fill="black"/>
<path d="M48 60H45V59H48V60Z" fill="black"/>
<path d="M-15 59H-22V58H-15V59Z" fill="black"/>
<path d="M50 59H48V58H50V59Z" fill="black"/>
<path d="M-30 57H-22V58H-31V57H-39V56H-30V57Z" fill="black"/>
<path d="M-13 58H-15V57H-13V58Z" fill="black"/>
<path d="M52 58H50V57H52V58Z" fill="black"/>
<path d="M61 55H65.3848V56H70.3652V57H73.2119V58H69.6543V57H64.6729V56H58.9805V55H56V56H53V55H54V54H61V55Z" fill="black"/>
<path d="M-9 57H-13V56H-9V57Z" fill="black"/>
<path d="M53 57H52V56H53V57Z" fill="black"/>
<path d="M75.3457 57H73.2119V56H75.3457V57Z" fill="black"/>
<path d="M-7 56H-9V55H-7V56Z" fill="black"/>
<path d="M76.7695 56H75.3457V55H76.7695V56Z" fill="black"/>
<path d="M-4 55H-7V54H-4V55Z" fill="black"/>
<path d="M78.9043 55H76.7695V54H78.9043V55Z" fill="black"/>
<path d="M-1 54H-4V53H-1V54Z" fill="black"/>
<path d="M79.6152 54H78.9043V53H79.6152V54Z" fill="black"/>
<path d="M1 53H-1V52H1V53Z" fill="black"/>
<path d="M81.75 53H79.6152V52H81.75V53Z" fill="black"/>
<path d="M3 52H1V51H3V52Z" fill="black"/>
<path d="M33 52H26V51H33V52Z" fill="black"/>
<path d="M83.1729 52H81.75V51H83.1729V52Z" fill="black"/>
<path d="M6 51H3V50H6V51Z" fill="black"/>
<path d="M18 50H26V51H17V50H6V49H18V50Z" fill="black"/>
<path d="M35 51H33V50H35V51Z" fill="black"/>
<path d="M84.5957 51H83.1729V50H84.5957V51Z" fill="black"/>
<path d="M39 50H35V49H39V50Z" fill="black"/>
<path d="M85.3076 50H84.5957V49H85.3076V50Z" fill="black"/>
<path d="M91 48H93.6924V49H98.9805V48H101.385V49H99.2119V50H93.2119V49H89.3652V48H87.4424V49H85.3076V48H86V47H91V48Z" fill="black"/>
<path d="M41 49H39V48H41V49Z" fill="black"/>
<path d="M44 48H41V47H44V48Z" fill="black"/>
<path d="M102.827 48H101.385V47H102.827V48Z" fill="black"/>
<path d="M47 47H44V46H47V47Z" fill="black"/>
<path d="M103.308 47H102.827V46H103.308V47Z" fill="black"/>
<path d="M49 46H47V45H49V46Z" fill="black"/>
<path d="M104.75 46H103.308V45H104.75V46Z" fill="black"/>
<path d="M51 45H49V44H51V45Z" fill="black"/>
<path d="M71.0771 45H66.0957V44H71.0771V45Z" fill="black"/>
<path d="M105.712 45H104.75V44H105.712V45Z" fill="black"/>
<path d="M54 44H51V43H54V44Z" fill="black"/>
<path d="M61 43H66.0957V44H59.6924V43H54V42H61V43Z" fill="black"/>
<path d="M72.5 44H71.0771V43H72.5V44Z" fill="black"/>
<path d="M106.673 44H105.712V43H106.673V44Z" fill="black"/>
<path d="M75.3457 43H72.5V42H75.3457V43Z" fill="black"/>
<path d="M107.154 43H106.673V42H107.154V43Z" fill="black"/>
<path d="M76.7695 42H75.3457V41H76.7695V42Z" fill="black"/>
<path d="M111 41H108.596V42H107.154V41H107.635V40H111V41Z" fill="black"/>
<path d="M78.9043 41H76.7695V40H78.9043V41Z" fill="black"/>
<path d="M81.0381 40H78.9043V39H81.0381V40Z" fill="black"/>
<path d="M82.4619 39H81.0381V38H82.4619V39Z" fill="black"/>
<path d="M83.8848 38H82.4619V37H83.8848V38Z" fill="black"/>
<path d="M91 36H96.4229V35H100.423V36H96.8457V37H89.8457V36H86.0195V37H83.8848V36H86V35H91V36Z" fill="black"/>
<path d="M101.385 35H100.423V34H101.385V35Z" fill="black"/>
<path d="M102.827 34H101.385V33H102.827V34Z" fill="black"/>
<path d="M104.27 33H102.827V32H104.27V33Z" fill="black"/>
<path d="M105.23 32H104.27V31H105.23V32Z" fill="black"/>
<path d="M106.192 31H105.23V30H106.192V31Z" fill="black"/>
<path d="M107.635 30H106.192V29H107.635V30Z" fill="black"/>
<path d="M111 29H107.635V28H111V29Z" fill="black"/>
<path d="M100 17H96V16H2V17H0V0H100V17Z" fill="black"/>
</g>
<defs>
<clipPath id="clip0_2013_1937">
<rect width="100" height="100" fill="white"/>
</clipPath>
</defs>
</svg>
