<svg width="100" height="100" viewBox="0 0 100 100" fill="none" xmlns="http://www.w3.org/2000/svg">
<rect x="8" y="18" width="8" height="82" fill="black"/>
<path d="M11 7H13V10H15V12H18V18H16V19H8V18H6V12H9V10H11V7Z" fill="#C06041"/>
<path d="M19 21H31V25H44V47H31V43H19V21Z" fill="#C06041"/>
<path d="M31 52H19V74H31V78H44V56H31V52Z" fill="#C06041"/>
<path d="M82 22H67V25H54V47H67V44H82V46H95V24H82V22Z" fill="#C06041"/>
<path d="M67 53H82V55H95V77H82V75H67V78H54V56H67V53Z" fill="#C06041"/>
</svg>
