<svg width="100" height="100" viewBox="0 0 100 100" fill="none" xmlns="http://www.w3.org/2000/svg">
<path d="M100 23H93V20H17V23H0V0H100V23Z" fill="black"/>
<path d="M76 76H79V78H76V81H79V83H76V89H75V84H72V82H75V76H72V74H75V69H76V76Z" fill="black"/>
<path d="M13 69H16V71H13V76H16V78H13V83H12V77H9V75H12V70H9V68H12V63H13V69Z" fill="black"/>
<path d="M51 72H54V74H51V79H54V81H51V83H50V80H47V78H50V66H51V72Z" fill="black"/>
<path d="M33 62H36V64H33V69H36V71H33V76H32V70H29V68H32V63H29V61H32V56H33V62Z" fill="black"/>
<path d="M91 50H93V52H91V56H94V58H91V62H90V59H87V57H90V45H91V50Z" fill="black"/>
<path d="M64 51H66V53H64V58H63V52H61V50H63V49H64V51Z" fill="black"/>
<path d="M45 42H47V44H45V48H48V50H45V53H44V45H41V43H44V40H45V42Z" fill="black"/>
<path d="M22 40H25V42H22V50H21V43H19V41H21V39H22V40Z" fill="black"/>
<path fill-rule="evenodd" clip-rule="evenodd" d="M77.667 60.167H79.833V62.333H82V66.667H79.833V68.833H77.667V71H73.333V68.833H71.167V66.667H69V62.333H71.167V60.167H73.333V58H77.667V60.167ZM73.333 66.667H77.667V62.333H73.333V66.667Z" fill="#FFD600"/>
<path d="M52 66H53V69H52V70H49V69H48V66H49V65H52V66Z" fill="#FFD600"/>
<path fill-rule="evenodd" clip-rule="evenodd" d="M14.667 52.167H16.833V54.333H19V58.667H16.833V60.833H14.667V63H10.333V60.833H8.16699V58.667H6V54.333H8.16699V52.167H10.333V50H14.667V52.167ZM10.333 58.667H14.667V54.333H10.333V58.667Z" fill="#FFD600"/>
<path fill-rule="evenodd" clip-rule="evenodd" d="M34.667 49.167H36.833V51.333H39V55.667H36.833V57.833H34.667V60H30.333V57.833H28.167V55.667H26V51.333H28.167V49.167H30.333V47H34.667V49.167ZM30.333 55.667H34.667V51.333H30.333V55.667Z" fill="#FFD600"/>
<path d="M64 49H63V48H64V49Z" fill="#FFD600"/>
<path d="M92 45H93V48H92V49H89V48H88V45H89V44H92V45Z" fill="#FFD600"/>
<path fill-rule="evenodd" clip-rule="evenodd" d="M47 35H48V40H47V41H42V40H41V35H42V34H47V35ZM43 38H45V36H43V38Z" fill="#FFD600"/>
</svg>
