<svg width="100" height="100" viewBox="0 0 100 100" fill="none" xmlns="http://www.w3.org/2000/svg">
<g clip-path="url(#clip0_2018_3457)">
<path d="M100 25H22V28H0V0H100V25Z" fill="black"/>
<path d="M88.4443 27H86.8887V29H85.333V31H83.7773V33H82.2227V35H80.667V37H79.1113V39H77.5557V42H74.4443V46H71.333V50H68.2227V56H63.5557V64H57.333V74H50.4443V86H43V100H6V86H18.4443V74H29.333V64H38.667V56H46.4443V50H52.667V46H58.8887V42H65.1113V39H69.7773V37H71.333V35H74.4443V33H77.5557V31H80.667V29H83.7773V27H85.333V26H86.8887V25H90V26H88.4443V27Z" fill="#8E8E8E"/>
</g>
<defs>
<clipPath id="clip0_2018_3457">
<rect width="100" height="100" fill="white"/>
</clipPath>
</defs>
</svg>
