<svg width="100" height="100" viewBox="0 0 100 100" fill="none" xmlns="http://www.w3.org/2000/svg">
<g clip-path="url(#clip0_157_1081)">
<path d="M0 35H52.2222V32.0001H53.2222V31H59.2222V32.0001H60.2222V35H80.2222V34.3334H81.5556V33H89.5556V34.3334H90.8889V35H100V0H0V35Z" fill="#5DA6DC"/>
<path fill-rule="evenodd" clip-rule="evenodd" d="M80.2222 35V43.6668H81.5556V45H89.5556V43.6668H90.8889V35H100V100H0V88H11V86H13V72H11V70H0V35H52.2222V39.0001H53.2222V40H59.2222V39.0001H60.2222V35H80.2222ZM59 54H71V56H73V70H71V72H59V70H57V56H59V54ZM22.8889 36H30.8889V37.3334H32.2222V46.6668H30.8889V48H22.8889V46.6668H21.5556V37.3334H22.8889V36Z" fill="black"/>
</g>
<defs>
<clipPath id="clip0_157_1081">
<rect width="100" height="100" fill="white"/>
</clipPath>
</defs>
</svg>
