<svg width="100" height="100" viewBox="0 0 100 100" fill="none" xmlns="http://www.w3.org/2000/svg">
<path fill-rule="evenodd" clip-rule="evenodd" d="M22.8154 46H76.8154V83H22.8154V46ZM30.7231 55.3077H44.2V68.7846H30.7231V55.3077ZM67.7846 55.3077H54.3077V68.7846H67.7846V55.3077Z" fill="#C06041"/>
<path d="M64.4154 19.3691H35.2154V23.8614H30.7231V28.3538L27.3538 28.3538V32.8461H23.9846V37.3384L19.4923 37.3384V41.8307H15V46.323H84.6308V41.8307H80.1385V37.3384L75.6462 37.3384V32.8461H72.2769V28.3538L68.9077 28.3538V23.8614H64.4154V19.3691Z" fill="black"/>
<path d="M36.3385 55.3076H38.5846V60.923H44.2V63.1691H38.5846V68.7845H36.3385V63.1691H30.7231V60.923H36.3385V55.3076Z" fill="black"/>
<path d="M59.9231 55.3076H62.1692V60.923H67.7846V63.1691H62.1692V68.7845H59.9231V63.1691H54.3077L54.3077 60.923H59.9231V55.3076Z" fill="black"/>
<path d="M56.8154 16H61.8154V26H56.8154V16Z" fill="#C06041"/>
</svg>
