<svg width="100" height="100" viewBox="0 0 100 100" fill="none" xmlns="http://www.w3.org/2000/svg">
<g clip-path="url(#clip0_157_1015)">
<path fill-rule="evenodd" clip-rule="evenodd" d="M0 0H100V100H0V0ZM56.8154 16H61.8154V26H56.8154V16ZM76.8154 46H22.8154V83H76.8154V46ZM44.2 55.3077H30.7231V68.7846H44.2V55.3077ZM54.3077 55.3077H67.7846V68.7846H54.3077V55.3077Z" fill="#5DA6DC"/>
<path fill-rule="evenodd" clip-rule="evenodd" d="M56.8154 19.3691H35.2154V23.8614H30.7231V28.3538H27.3538V32.8461H23.9846V37.3384H19.4923V41.8307H15V46.323H84.6308V41.8307H80.1385V37.3384H75.6461V32.8461H72.2769V28.3538H68.9077V23.8614H64.4154V19.3691H61.8154V26H56.8154V19.3691ZM36.3385 55.3076H38.5846V60.923H44.2V63.1691H38.5846V68.7845H36.3385V63.1691H30.7231V60.923H36.3385V55.3076ZM62.1692 55.3076H59.9231V60.923H54.3077L54.3077 63.1691H59.9231V68.7845H62.1692V63.1691H67.7846V60.923H62.1692V55.3076Z" fill="black"/>
</g>
<defs>
<clipPath id="clip0_157_1015">
<rect width="100" height="100" fill="white"/>
</clipPath>
</defs>
</svg>
