<svg width="100" height="100" viewBox="0 0 100 100" fill="none" xmlns="http://www.w3.org/2000/svg">
<path d="M25.1429 25.762H19.5079V74.2224H28.5238V76.4762H31.9048V85.4921H69.0952V76.4762H72.4762L72.4762 74.2223H84.873V68.5874H72.4762L72.4762 71.9683H66.8413V75.3493H63.4603V78.7302H37.5397V75.3493H34.1587V71.9683H31.9048V68.5875H25.1429V25.762Z" fill="#326331"/>
<path d="M26 19H21V21H18V26H20V30H23V34H29V29H25V26H23V24H26V19Z" fill="black"/>
<path d="M25.1429 77.6031V75.3491H19.5079V77.6031H17.254V79.8571H15V85.492H17.254V87.7459H19.5079V89.9999H25.1429V87.7459H27.3968V85.492H29.6508V79.8571H27.3968V77.6031H25.1429Z" fill="black"/>
<path d="M80.3651 77.6031V75.3491H74.7302V77.6031H72.4762V79.8571H70.2222V85.492H72.4762V87.7459H74.7302V89.9999H80.3651V87.7459H82.6191V85.492H84.873V79.8571H82.6191V77.6031H80.3651Z" fill="black"/>
</svg>
