<svg width="100" height="100" viewBox="0 0 100 100" fill="none" xmlns="http://www.w3.org/2000/svg">
<g clip-path="url(#clip0_110_2759)">
<path fill-rule="evenodd" clip-rule="evenodd" d="M100 0H0V100H100V0ZM69.5 55H78.95V60H80V70H71.6V73H61.1V70H59V65H73.7V63H76.85V60H74.75V61H65.3V58H69.5V55Z" fill="#5DA6DC"/>
<path fill-rule="evenodd" clip-rule="evenodd" d="M84.561 37H76.1707V39.0851H74.0732V42.2128H71.9756V46.383H69.878V50.5532H66.7317V53.6809H62.5366V55.766H57.2927V57.8511H51V60.9787H42.6098V65.1489H25.8293V68.2766H8V72.4468H25.8293V71.4043H42.6098V69.3192H51V70.3617H57.2927V73.4894H62.5366V75.5745H63.5854V81.8298H65.6829V86H68.8293V79.7447H66.7317V75.5745H69.878V79.7447H70.9268V83.9149H74.0732V77.6596H73.0244V73.4894H75.1219V70.3617H80.3659V67.234H82.4634V64.1064H84.561V58.8936H85.6098V51.5957H84.561V43.2553H89.8049V42.2128H94V40.1277H89.8049V39.0851H84.561V37ZM69.5 55H78.95V60H80V70H71.6V73H61.1V70H59V65H73.7V63H76.85V60H74.75V61H65.3V58H69.5V55Z" fill="black"/>
</g>
<defs>
<clipPath id="clip0_110_2759">
<rect width="100" height="100" fill="white"/>
</clipPath>
</defs>
</svg>
