<svg width="100" height="100" viewBox="0 0 100 100" fill="none" xmlns="http://www.w3.org/2000/svg">
<rect x="44.4706" y="91.2941" width="8.94118" height="6.70588" fill="black"/>
<path d="M51.1765 3H46.7059V8.58826H43.3529V14.1765H46.7059V15.2941H40V19.7647H41.1176V27.5882H46.7059L38.8824 27.5883V36.5294L33.2941 36.5294V39.8824H36.6471V48.8235H46.7059L33.2941 48.8235V55.5294H25.4706V65.5882L28.8235 65.5883V72.2941L24.3529 72.2941V82.353H18.7647V91.2941H80.2353V80.1177H73.5294V75.647H70.1765V66.7059H63.4706V62.2353L51.1765 62.2353H66.8235V54.4117L63.4706 54.4118V45.4706H61.2353V43.2353H57.8824V36.5294H61.2353V33.1765H59V23.1177H51.1765L56.7647 23.1176V18.647H54.5294V10.8235H51.1765V3Z" fill="#326331"/>
</svg>
