<svg xmlns="http://www.w3.org/2000/svg" viewBox="0 0 100 100">
  <path d="M5 23v-2h4v1h1v2h1v1h12v2h1v1h2v11h-2v1h-2v-1 1h-4v-1H7v-2H5V23Z"/>
  <path d="M8 39v1h6v-1H8Z"/>
  <path fill-rule="evenodd" d="M9 23h3v-2H9v1H6v-1H3v2h2v5h1v1h2v-1h1v-5Zm-3 0H5v1h1v-1Zm2 0h1v1H8v-1Zm-1 4h1v1H7v-1Z" clip-rule="evenodd"/>
  <path d="M23 40h1v6h-1v-6ZM19 41h1v4h1v-5h-2v1ZM11 43v4h1v-4h1v-3h-2v3ZM10 40H9v7h1v-7Z"/>
  <path fill="currentColor" d="M88 28v-5H75v2h-3v5h-2v3h-4v1H30v4h-5v5h-5v28h5v3h7v-3h2v3h12v-3h14v4h20v-4h2v-5h6V44h3V28h-3Z"/>
  <path fill-rule="evenodd" d="M75 29h-8v-5h9v2h11v-2h9v5h-7v13h-3v2h-8v-2h-3V29Zm4 0h-3v2h3v-2Zm5 9h-4v3h4v-3Zm1-9h3v2h-3v-2Z" clip-rule="evenodd"/>
  <path d="M31 74h-5v15h5V74ZM36 76h-1v12h5V76h2v-2h-6v2ZM69 81h2v12h-5V81h-3v-6h6v6ZM72 75h5v17h-4V82h-1v-7Z"/>
</svg>
