<svg width="100" height="100" viewBox="0 0 100 100" fill="none" xmlns="http://www.w3.org/2000/svg">
<g clip-path="url(#clip0_157_999)">
<path fill-rule="evenodd" clip-rule="evenodd" d="M100 0H0V100H100V0ZM88 23V28H91V44H88V66H82V71H80V75H60V71H46V74H34V71H32V74H25V71H20V43H25V38H30V34H66V33H70V30H72V25H75V23H88Z" fill="#326331"/>
<path d="M5.40511 22.8572V21H9.3134V21.7429H10.2153V23.6H10.8166V24.7144H12.0191V25.086H22.8421V26.5717H24.3453V28.4286H25.8485V38.8286H24.3453V39.943H22.2408V38.8288H21.6396V39.943H18.0319V38.8288H7.20893V36.9716H5.4051V28.8001H4.50319V22.8572H5.40511Z" fill="black"/>
<path d="M7.81021 38.8289V40.3146H13.823V38.8289H7.81021Z" fill="black"/>
<path fill-rule="evenodd" clip-rule="evenodd" d="M9.3134 23.2287H11.7185V21.3715H9.01276V22.1143H5.70574V21.3715H3V23.2287H5.10447V28.0571H6.00638V28.8002H8.41149V28.0571H9.3134V23.2287ZM6.30702 23.2286H5.40511V23.9715H6.30702V23.2286ZM8.11085 23.2287H9.01276V23.9716H8.11085V23.2287ZM6.60766 26.5715H7.81021V27.6858H6.60766V26.5715Z" fill="black"/>
<path d="M22.5415 39.9429H24.0447V45.5144H22.5415V39.9429Z" fill="black"/>
<path d="M19.2345 40.6858H19.8357V45.1428H21.3389V40.6856H21.0383V39.943H19.2345V40.6858Z" fill="black"/>
<path d="M11.1172 42.543H10.516V47.0001H12.0191V42.5431H12.9211V40.3145H11.1172V42.543Z" fill="black"/>
<path d="M10.2153 40.3145H8.71213V46.6287H9.91468V42.9145H10.2153V40.3145Z" fill="black"/>
<path fill-rule="evenodd" clip-rule="evenodd" d="M75 29H67V24H76V26H87V24H96V29H89V42H86V44H78V42H75V29ZM79 29H76V31H79V29ZM84 38H80V41H84V38ZM85 29H88V31H85V29Z" fill="black"/>
<path d="M31 74H26V89H31V74Z" fill="black"/>
<path d="M36 76H35V88H40V76H42V74H36V76Z" fill="black"/>
<path d="M69 81H71V93H66V81H63V75H69V81Z" fill="black"/>
<path d="M72 75H77V92H73V82H72V75Z" fill="black"/>
</g>
<defs>
<clipPath id="clip0_157_999">
<rect width="100" height="100" fill="white"/>
</clipPath>
</defs>
</svg>
