<svg width="100" height="100" viewBox="0 0 100 100" fill="none" xmlns="http://www.w3.org/2000/svg">
<g clip-path="url(#clip0_120_707)">
<path d="M71 18H29V16H27V6H29V4H34V0H37V4H63V0H66V4H71V6H73V16H71V18Z" fill="black"/>
<path d="M5 43H8V61H5V43Z" fill="black"/>
<path d="M25 43H28V61H25V43Z" fill="black"/>
<path d="M42 43H39V61H42V43Z" fill="black"/>
<path d="M62 43H59V61H62V43Z" fill="black"/>
<path d="M76 43H73V61H76V43Z" fill="black"/>
<path d="M96 43H93V61H96V43Z" fill="black"/>
<path d="M0 79H100V100H0V79Z" fill="black"/>
<path fill-rule="evenodd" clip-rule="evenodd" d="M29 16H71V6H29V16ZM34 14H32V8H34V14ZM37 11V14H35V11H36V8H38V11H37ZM40 11V14H42V11H41V8H39V11H40ZM47 11V14H45V11H44V8H46V11H47ZM47 11V8H49V11H47ZM51 14H53V11H54V14H56V11H55V8H53V11H51V14ZM59 11V14H61V11H60V8H58V11H59ZM64 14V11H66V8H68V14H64ZM64 11H62V8H64V11Z" fill="#326331"/>
<path d="M2 44H31V51H2V44Z" fill="#326331"/>
<path d="M1 52H32V56H1V52Z" fill="#326331"/>
<path d="M65 44H36V51H65V44Z" fill="#326331"/>
<path d="M66 52H35V56H66V52Z" fill="#326331"/>
<path d="M99 44H70V51H99V44Z" fill="#326331"/>
<path d="M100 52H69V56H100V52Z" fill="#326331"/>
<path d="M0 97H100V100H0V97Z" fill="#326331"/>
</g>
<defs>
<clipPath id="clip0_120_707">
<rect width="100" height="100" fill="white"/>
</clipPath>
</defs>
</svg>
