<svg width="100" height="100" viewBox="0 0 100 100" fill="none" xmlns="http://www.w3.org/2000/svg">
<path d="M52 100H48V69H52V100Z" fill="black"/>
<path d="M52 27H64V41H36V27H48V16H52V27Z" fill="black"/>
<path fill-rule="evenodd" clip-rule="evenodd" d="M63 27H66V70H63V72H37V70H34V27H37V24H63V27ZM44 52.2861V62H50.0713V52.2861H48.8574V60.7861H45.2139V52.2861H44ZM51.2861 45V48.6426H52.5V49.8574H46.4287V51.0713H51.2861V62H52.5V57.1426H53.7148V62H54.9287V51.0713H57.3574V49.8574H53.7148V48.6426H54.9287V45H51.2861ZM39.875 28.125H37.625V29.25H36.5V34.875H37.625V36H47.75V34.875H48.875V29.25H47.75V27H39.875V28.125ZM52.25 29.25H51.125V34.875H52.25V36H62.375V34.875H63.5V29.25H62.375V28.125H60.125V27H52.25V29.25Z" fill="#326331"/>
</svg>
