<svg width="100" height="100" viewBox="0 0 100 100" fill="none" xmlns="http://www.w3.org/2000/svg">
<path d="M42.4849 23.9091V21.0909L65.0303 21.0909L65.0303 23.9091L80.0606 23.9091V27.6667L63.1515 27.6667V39.8788H81V42.697H63.1515V49.2728H59.3939L59.3939 55.8485H73.4849L73.4849 58.6667H59.3939V66.1819H55.6364V100H40.6061V70.8788H26.5152V68.0606H40.6061V60.5455H37.7879V53.9697H21.8182V51.1515H37.7879V38H26.5152V35.1819H49.0606L49.0606 38H45.303V43.6364H59.3939L59.3939 42.697H58.4546V39.8788H59.3939V27.6667H57.5152V23.9091L42.4849 23.9091Z" fill="black"/>
<path d="M15.2424 22.0303V24.8485L37.7879 24.8485V22.0303L15.2424 22.0303Z" fill="black"/>
<path fill-rule="evenodd" clip-rule="evenodd" d="M35.9091 7H45.303V14.5152H50V15.4545H53.2879V9.81813H70.5101V17.3333H74.4243V14.5151L84.4556 14.5151V22.9696H79.1213V24.8484H48.1213V22.0303L35.4394 22.0303V23.9091H40.6061V24.8485H55.0101V28.606H59.394L59.394 26.7273H65.0303V24.8485L77.2424 24.8485V28.1364L86.6364 28.1364V30.4848H94.1515V39.8788L74.4243 39.8788L74.4243 40.8182H83.8182V50.2122H80.0606V53.6175H81.6039V51.1516H89.4546V59.6061H86.6364V62.4243H75.5649V58.197H72.5455V56.7879H67.8485V50.2122H66.9091V57.7273H62.2121V63.3636H44.9899V59.606H39.6667V65.2424H35.2828V69H18.0606V63.3636H13.3636V53.9697H22.7576V57.2576H27.4546V52.0909H18.0606L18.0606 45.5151H9.60607V39.8788H5.8485V32.3636H9.60607V25.7879H18.2172V23.3219H13.4643V18.2727H7.72729V9.81818H17.1212V14.5151H21.1807V9.81813H31.2121V18.2727H27.6111L33.0909 18.2727V12.6364H35.9091V7ZM65.0303 34.2424H59.394L59.394 38.9394H61.2727V45.5151H65.0303V38H69.4142V36.1212H65.0303V34.2424ZM47.1818 36.5909V38.9394H42.4849V36.5909H47.1818ZM34.0303 39.8788H40.6061V48.3333H37.7879V53.9697H36.8485V42.697H34.0303V39.8788ZM50 51.6212V51.1515H55.6364V51.6212H50ZM21.8182 42.697L21.8182 39.8788H19V42.697H21.8182ZM22.7576 36.1212L33.0909 36.1212V33.3031H22.7576V36.1212Z" fill="#326331"/>
</svg>
