<svg width="100" height="100" viewBox="0 0 100 100" fill="none" xmlns="http://www.w3.org/2000/svg">
<path d="M88.5175 63.0116H92.9055V63.8893H93.7831V64.7667H94.6607V69.1548H93.7831V70.0325H92.9055V70.91H88.5175V70.0325H87.6399V69.1548H86.7623V64.7667H87.6399V63.8893H88.5175V63.0116Z" fill="black"/>
<path d="M12.2414 63.0116H16.6294V63.8893H17.507V64.7667H18.3846V69.1548H17.507V70.0325H16.6294V70.91H12.2414V70.0325H11.3638V69.1548H10.4862V64.7667H11.3638V63.8893H12.2414V63.0116Z" fill="black"/>
<path d="M22.5353 63.0116H26.9233V63.8893H27.8009V64.7667H28.6785V69.1548H27.8009V70.0325H26.9233V70.91H22.5353V70.0325H21.6577V69.1548H20.7801V64.7667H21.6577V63.8893H22.5353V63.0116Z" fill="black"/>
<path d="M60.2148 63.0116H64.6028V63.8893H65.4804V64.7667H66.358V69.1548H65.4804V70.0325H64.6028V70.91H60.2148V70.0325H59.3371V69.1548H58.4595V64.7667H59.3371V63.8893H60.2148V63.0116Z" fill="black"/>
<path d="M69.3648 63.0116H73.7529V63.8893H74.6305V64.7667H75.5081V69.1548H74.6305V70.0325H73.7529V70.91H69.3648V70.0325H68.4872V69.1548H67.6096V64.7667H68.4872V63.8893H69.3648V63.0116Z" fill="black"/>
<path d="M74 38H1V59H1.39006V65.8927H9.39641V63.6579H10.5666V62.4878H11.7367V61.3176H17.5874V62.4878H18.7575V63.6579H20.8604V62.4878H22.0306V61.3176H27.8813V62.4878H29.0514V63.6579H30.2215V65.8927H49.4281V62.4614H52.8594V59H74V38Z" fill="#8D5D31"/>
<path fill-rule="evenodd" clip-rule="evenodd" d="M78.2056 43.9237H79.522V42.6074H80.8384V41.9493H82.1549V38H84.7877V41.9493H91.3697V42.6074H92.6861V43.9237H94.0025L94.0025 52.4806H97.9517V53.7969H98.6099V64.9863H97.9517V66.3028H95.9771V64.0358H94.807V62.8655H93.6368V61.6954H87.7861V62.8655H86.616V64.0358H85.4459V66.3028L76.8892 66.3027V64.0358H75.7191V62.8655H74.549V61.6954H68.6983V62.8655H67.5281V64.0358H66.5042V62.8655H65.3341V61.6954H59.4834V62.8655H58.3133V64.0358H57.1431V66.3027H55.8267V60.3789H78.2056V43.9237ZM90.7115 46.5568V45.2403H84.1295V52.4806H92.0279V46.5568H90.7115Z" fill="#8D5D31"/>
</svg>
