<svg width="100" height="100" viewBox="0 0 100 100" fill="none" xmlns="http://www.w3.org/2000/svg">
<g clip-path="url(#clip0_99_1785)">
<path d="M53.2734 29.988H47.9996V87.9999H53.2734V29.988Z" fill="black"/>
<path d="M6 88H94V91H100V100H0V91H6V88Z" fill="black"/>
<path fill-rule="evenodd" clip-rule="evenodd" d="M39.8222 2.17282L44.7477 0.853027L45.4076 3.31586L47.8704 2.65597L53.8095 24.8209L51.3467 25.4808L53.0375 31.7908L59.3476 33.4816L60.0074 31.0189L82.1724 36.958L81.5125 39.4207L83.9752 40.0806L82.6554 45.0061L80.1927 44.3462L79.5328 46.8091L57.3678 40.87L58.0278 38.4071L52.0612 36.8084L48.1768 40.6928L49.9795 42.4955L33.7537 58.7214L31.9509 56.9186L30.1479 58.7216L26.5422 55.1159L28.3452 53.3129L26.5422 51.5099L42.768 35.284L44.571 37.087L48.204 33.4541L46.4212 26.8006L43.9584 27.4605L38.0193 5.29556L40.4821 4.63566L39.8222 2.17282ZM52.3944 32.625H48.8785V36.1409H52.3944V32.625Z" fill="#5DA6DC"/>
</g>
<defs>
<clipPath id="clip0_99_1785">
<rect width="100" height="100" fill="white"/>
</clipPath>
</defs>
</svg>
