<?xml version="1.0" standalone="no"?>
<!DOCTYPE svg PUBLIC "-//W3C//DTD SVG 20010904//EN"
 "http://www.w3.org/TR/2001/REC-SVG-20010904/DTD/svg10.dtd">
<svg version="1.0" xmlns="http://www.w3.org/2000/svg"
 width="400.000000pt" height="400.000000pt" viewBox="0 0 400.000000 400.000000"
 preserveAspectRatio="xMidYMid meet">
<metadata>
Created by potrace 1.14, written by Peter Selinger 2001-2017
</metadata>
<g transform="translate(0.000000,400.000000) scale(0.100000,-0.100000)"
fill="#000000" stroke="none">
<path d="M0 2000 l0 -2000 2000 0 2000 0 0 2000 0 2000 -2000 0 -2000 0 0
-2000z m3200 1580 l0 -380 -380 0 -380 0 0 380 0 380 380 0 380 0 0 -380z
m760 0 l0 -380 -360 0 -360 0 0 380 0 380 360 0 360 0 0 -380z m-2360 -800 l0
-380 -380 0 -380 0 0 380 0 380 380 0 380 0 0 -380z m800 0 l0 -380 -380 0
-380 0 0 380 0 380 380 0 380 0 0 -380z m1560 0 l0 -380 -360 0 -360 0 0 380
0 380 360 0 360 0 0 -380z m-760 -800 l0 -380 -380 0 -380 0 0 380 0 380 380
0 380 0 0 -380z m760 0 l0 -380 -360 0 -360 0 0 380 0 380 360 0 360 0 0 -380z
m-2360 -800 l0 -380 -380 0 -380 0 0 380 0 380 380 0 380 0 0 -380z m800 0 l0
-380 -380 0 -380 0 0 380 0 380 380 0 380 0 0 -380z m1560 0 l0 -380 -360 0
-360 0 0 380 0 380 360 0 360 0 0 -380z m-760 -780 l0 -360 -380 0 -380 0 0
360 0 360 380 0 380 0 0 -360z m760 0 l0 -360 -360 0 -360 0 0 360 0 360 360
0 360 0 0 -360z"/>
</g>
</svg>
